<svg width="25" height="25" viewBox="0 0 25 25" fill="none" xmlns="http://www.w3.org/2000/svg">
<path fill-rule="evenodd" clip-rule="evenodd" d="M7.85722 2.72363H16.9887C20.3164 2.72363 22.2151 4.60278 22.2151 7.94023V17.0815C22.2151 20.3994 20.3262 22.2981 16.9985 22.2981H7.85722C4.51977 22.2981 2.64062 20.3994 2.64062 17.0815V7.94023C2.64062 4.60278 4.51977 2.72363 7.85722 2.72363ZM13.2304 13.323H16.01C16.4602 13.3132 16.8223 12.9511 16.8223 12.5008C16.8223 12.0506 16.4602 11.6885 16.01 11.6885H13.2304V8.92851C13.2304 8.4783 12.8683 8.11617 12.4181 8.11617C11.9679 8.11617 11.6057 8.4783 11.6057 8.92851V11.6885H8.83594C8.62062 11.6885 8.41509 11.7766 8.2585 11.9234C8.11169 12.08 8.0236 12.2846 8.0236 12.5008C8.0236 12.9511 8.38573 13.3132 8.83594 13.323H11.6057V16.0928C11.6057 16.543 11.9679 16.9051 12.4181 16.9051C12.8683 16.9051 13.2304 16.543 13.2304 16.0928V13.323Z" fill="#F8F8FA"/>
</svg>
