<svg width="18" height="18" viewBox="0 0 18 18" fill="none" xmlns="http://www.w3.org/2000/svg">
<path d="M10.3867 3.1875V5.0025" stroke="#9300DC" stroke-width="1.22727" stroke-linecap="round" stroke-linejoin="round"/>
<path d="M10.3867 13.3203V14.8383" stroke="#9300DC" stroke-width="1.22727" stroke-linecap="round" stroke-linejoin="round"/>
<path d="M10.3867 10.7427V7.12695" stroke="#9300DC" stroke-width="1.22727" stroke-linecap="round" stroke-linejoin="round"/>
<path fill-rule="evenodd" clip-rule="evenodd" d="M14.0266 15.001C15.3931 15.001 16.5 13.9079 16.5 12.5583V10.614C15.5957 10.614 14.8675 9.89476 14.8675 9.00175C14.8675 8.10874 15.5957 7.38877 16.5 7.38877L16.4992 5.44362C16.4992 4.09406 15.3916 3.00098 14.0258 3.00098H3.97419C2.60842 3.00098 1.50078 4.09406 1.50078 5.44362L1.5 7.45212C2.40426 7.45212 3.13251 8.10874 3.13251 9.00175C3.13251 9.89476 2.40426 10.614 1.5 10.614V12.5583C1.5 13.9079 2.60685 15.001 3.9734 15.001H14.0266Z" stroke="#9300DC" stroke-width="1.22727" stroke-linecap="round" stroke-linejoin="round"/>
</svg>
