<svg width="203" height="32" viewBox="0 0 203 32" fill="none" xmlns="http://www.w3.org/2000/svg">
<path d="M13.8692 25.4604C12.0276 25.4604 10.2997 25.1421 8.68544 24.5055C7.08257 23.8575 5.70705 22.9765 4.5589 21.8625C3.41074 20.737 2.50699 19.3899 1.84766 17.8212C1.18832 16.241 0.85865 14.5586 0.85865 12.7738C0.85865 10.3866 1.41568 8.22668 2.52973 6.29414C3.64378 4.3616 5.18982 2.84967 7.16783 1.75835C9.14584 0.655664 11.3569 0.104321 13.801 0.104321C16.9726 0.104321 19.7066 1.00807 22.0029 2.81556C24.3106 4.62306 25.7714 6.99895 26.3852 9.94323H20.9287C20.4398 8.44267 19.5702 7.26041 18.3197 6.39645C17.0693 5.53249 15.5971 5.10051 13.9033 5.10051C11.6979 5.10051 9.90181 5.811 8.51492 7.23199C7.12804 8.65297 6.4346 10.5003 6.4346 12.7738C6.4346 15.0588 7.13373 16.9117 8.53198 18.3327C9.93023 19.7537 11.7491 20.4642 13.9886 20.4642C15.7506 20.4642 17.2682 20.0095 18.5414 19.1001C19.8146 18.1793 20.6672 16.9231 21.0992 15.3316H26.5217C25.9533 18.3441 24.5095 20.7882 22.1905 22.6639C19.8714 24.5282 17.0977 25.4604 13.8692 25.4604ZM30.6141 25V7.3684H48.0411V25H42.8573V11.9383H35.7808V25H30.6141ZM67.6166 24.2668C66.0706 25.0625 64.3313 25.4604 62.3987 25.4604C60.4662 25.4604 58.7212 25.0625 57.1638 24.2668C55.6178 23.4597 54.4071 22.3513 53.5318 20.9417C52.6678 19.532 52.2358 17.9519 52.2358 16.2013C52.2358 14.4506 52.6735 12.8705 53.5488 11.4608C54.4241 10.0399 55.6348 8.93149 57.1809 8.13574C58.7269 7.33998 60.4662 6.94211 62.3987 6.94211C64.3313 6.94211 66.0706 7.33998 67.6166 8.13574C69.1626 8.93149 70.3733 10.0399 71.2486 11.4608C72.124 12.8705 72.5616 14.4506 72.5616 16.2013C72.5616 17.9519 72.124 19.5377 71.2486 20.9587C70.3733 22.3683 69.1626 23.471 67.6166 24.2668ZM62.3987 21.061C63.8879 21.061 65.0986 20.612 66.0308 19.7139C66.9629 18.8159 67.429 17.645 67.429 16.2013C67.429 14.7348 66.9629 13.5525 66.0308 12.6545C65.0986 11.7564 63.8879 11.3074 62.3987 11.3074C60.8982 11.3074 59.6761 11.7564 58.7326 12.6545C57.8004 13.5525 57.3343 14.7348 57.3343 16.2013C57.3343 17.645 57.8004 18.8159 58.7326 19.7139C59.6761 20.612 60.8982 21.061 62.3987 21.061ZM81.7014 7.3684C81.69 8.05048 81.5764 8.70981 81.3604 9.34642C81.1444 9.97165 80.792 10.6935 80.3032 11.512L81.8549 12.2452C82.6051 10.5173 83.5828 9.21 84.7878 8.32331C85.9928 7.42524 87.3853 6.97621 88.9655 6.97621C91.2959 6.97621 93.2228 7.84585 94.7461 9.58514C96.2694 11.3244 97.031 13.5184 97.031 16.1671C97.031 18.8386 96.2694 21.044 94.7461 22.7833C93.2228 24.5225 91.2959 25.3922 88.9655 25.3922C87.374 25.3922 85.9644 24.9432 84.7366 24.0451C83.5203 23.1357 82.5369 21.8227 81.7867 20.1061L80.269 20.8394C81.0193 22.2944 81.4911 23.6813 81.6843 25C81.8776 26.3073 81.9458 28.5752 81.889 31.8037H76.7223V7.3684H81.7014ZM86.9193 11.3074C85.4073 11.3074 84.1796 11.7621 83.2361 12.6715C82.2925 13.5696 81.8208 14.7348 81.8208 16.1671C81.8208 17.6222 82.2925 18.8045 83.2361 19.7139C84.1796 20.612 85.4073 21.061 86.9193 21.061C88.4198 21.061 89.6305 20.612 90.5513 19.7139C91.4721 18.8159 91.9325 17.6336 91.9325 16.1671C91.9325 14.7121 91.4721 13.5412 90.5513 12.6545C89.6305 11.7564 88.4198 11.3074 86.9193 11.3074ZM104.79 25V11.9383H99.1795V7.3684H115.583V11.9383H109.956V25H104.79Z" fill="#9932CC"/>
<path d="M130.913 25.4604C129.071 25.4604 127.343 25.1421 125.729 24.5055C124.126 23.8575 122.751 22.9765 121.603 21.8625C120.455 20.737 119.551 19.3899 118.891 17.8212C118.232 16.241 117.902 14.5586 117.902 12.7738C117.902 10.3866 118.459 8.22668 119.574 6.29414C120.688 4.3616 122.234 2.84967 124.212 1.75835C126.19 0.655664 128.401 0.104321 130.845 0.104321C134.016 0.104321 136.75 1.00807 139.047 2.81556C141.354 4.62306 142.815 6.99895 143.429 9.94323H137.972C137.484 8.44267 136.614 7.26041 135.364 6.39645C134.113 5.53249 132.641 5.10051 130.947 5.10051C128.742 5.10051 126.946 5.811 125.559 7.23199C124.172 8.65297 123.478 10.5003 123.478 12.7738C123.478 15.0588 124.178 16.9117 125.576 18.3327C126.974 19.7537 128.793 20.4642 131.032 20.4642C132.794 20.4642 134.312 20.0095 135.585 19.1001C136.858 18.1793 137.711 16.9231 138.143 15.3316H143.565C142.997 18.3441 141.553 20.7882 139.234 22.6639C136.915 24.5282 134.141 25.4604 130.913 25.4604ZM151.273 25V11.9383H145.663V7.3684H162.067V11.9383H156.44V25H151.273ZM170.115 25.4263C168.16 25.4263 166.602 24.9716 165.443 24.0621C164.295 23.1414 163.721 21.8966 163.721 20.3278C163.721 18.8272 164.221 17.5995 165.221 16.6446C166.233 15.6783 167.609 15.1099 169.348 14.9394L174.975 14.3767C175.646 14.3085 176.169 14.1209 176.544 13.814C176.93 13.4957 177.123 13.0921 177.123 12.6033C177.123 12.0122 176.834 11.5575 176.254 11.2392C175.685 10.9095 174.873 10.7447 173.815 10.7447C172.701 10.7447 171.786 10.955 171.07 11.3756C170.365 11.7848 169.916 12.3703 169.723 13.1319H164.624C164.988 11.1766 165.972 9.65903 167.574 8.57908C169.177 7.48777 171.235 6.94211 173.747 6.94211C176.475 6.94211 178.579 7.59008 180.056 8.88602C181.534 10.182 182.273 12.0236 182.273 14.4108V19.3047C182.273 19.9299 182.432 20.3448 182.751 20.5495C183.08 20.7427 183.723 20.8052 184.677 20.737V25C182.449 25.2501 180.892 25.0341 180.005 24.352C179.13 23.6586 178.92 22.5104 179.374 20.9076L177.908 20.4301C177.26 22.0216 176.259 23.255 174.907 24.1304C173.565 24.9943 171.968 25.4263 170.115 25.4263ZM171.479 21.6408C172.912 21.6408 174.173 21.1918 175.265 20.2937C176.367 19.3843 177.22 18.0997 177.823 16.44L176.544 15.7068C176.134 16.3206 175.668 16.7696 175.145 17.0538C174.623 17.338 173.923 17.5427 173.048 17.6677L171.121 17.9064C170.394 17.986 169.82 18.2077 169.399 18.5715C168.99 18.9239 168.785 19.3672 168.785 19.9015C168.785 20.4472 169.018 20.8735 169.484 21.1804C169.962 21.4873 170.627 21.6408 171.479 21.6408ZM191.242 25V11.9383H185.632V7.3684H202.036V11.9383H196.409V25H191.242Z" fill="#222222"/>
</svg>
